<svg version="1.2" xmlns="http://www.w3.org/2000/svg" viewBox="0 -0.013482687999999854 523.9199389357534 125.013482688" width="524" height="126">
	<style>
		.s0 { fill: #006994 } 
		.s1 { fill: #FFFFFF } 
		.s2 { fill: #000000 } 
	</style>
	<g id="Layer 1">
		<path id="Forme 1" fill-rule="evenodd" class="s0" d="m59.22 125c-32.75 0-59.22-26.47-59.22-59.22 0-32.74 26.47-59.21 59.22-59.21 32.74 0 59.21 26.47 59.21 59.21 0 32.75-26.47 59.22-59.21 59.22z"/>
		<path id="Forme 2" fill-rule="evenodd" class="s1" d="m35.93 10.96c2.59 2.07 13.59 5.46 22.07 15.71 8.47 10.26 8.78 11.87 15.28 14.68 13.49 5.85 5.53 19.67 13.72 40.88 8.19 21.22 4.48 26.48 4.87 33.24 0.4 6.77-2.21-26.42-7.69-31-9.21-7.7-3.54-16.32-5.24-25.59-0.82-4.45-21.21-29.15-29.55-33.69-8.21-4.48-15.76-16.07-13.46-14.23z"/>
		<path id="Forme 3" fill-rule="evenodd" class="s1" d="m0 76.96c0 0 5.75-7.57 21.53-10.73 16.65-3.33 12.58 1.22 27.47 10 14.89 8.79 12.07 7.07 23.51 4.01 11.43-3.05 10.49-6.17 24.49 2.99 14 9.16 22-20 22-20 0 0-10.22 13.81-10.66 15.99-0.67 3.4-4.61 4.59-8.55 2.78-3.71-1.71-9.08-8.13-12.58-8.17-3.5-0.03-19.42 2.25-24.62-0.57-5.2-2.82-13.55-2.4-18.01-5.4-4.47-3-14.94-5.57-19.96-6.18-5.36-0.65-20.18 5.31-22.53 9.12"/>
		<path id="Forme 4" fill-rule="evenodd" class="s1" d="m12.94 28.52c3.04 6.12 5.39 3.49 15.92 2.25 10.9-1.29 16.31-2.74 25.14 3.46 8.83 6.21 2.81-0.04 12.89 7.33 10.08 7.37 8.41 2.26 19.11 2.67 10.7 0.42 9.71-3.33 16-3 6.29 0.34 6.12-0.56 10-3 3.88-2.44-7.63-0.66-12 0-4.37 0.66-7.28 2.9-12 3-4.72 0.11-12.09 2.71-20-2-7.91-4.7-7.8-4.62-12-7-4.2-2.38-6.26-6.34-10-7-3.74-0.66-8.98 0.94-13 2-3.8 1.01-7.23 0.11-9.79 1.3-6.39 2.96-13.01-5.55-10.27-0.01z"/>
	</g>
	<g id="Dossier 1">
		<path id="A travers les époques" class="s2" aria-label="A travers les époques"  d="m150.6 30h-2.5l5.9-15.8q0.4-1.1 1.1-1.5 0.7-0.5 1.6-0.5 1 0 1.7 0.5 0.7 0.4 1 1.4l6 15.9h-2.6l-1.5-4.2h-9.2zm5.5-15.1l-3.2 8.7h7.7l-3.1-8.7q-0.1-0.3-0.3-0.5-0.1-0.1-0.4-0.1-0.3 0-0.4 0.1-0.1 0.2-0.3 0.5zm24.1 15.1h-3q-1.7 0-2.6-1-1-1-1-2.7v-12.3h2.3v12.2q0 0.8 0.5 1.3 0.4 0.5 1.3 0.5h2.5zm0.1-10.8h-8.9v-2h8.9zm5.8 10.8h-2.3v-9.1q0-1.7 1-2.7 0.9-1 2.6-1h2.7v2h-2.2q-0.9 0-1.3 0.5-0.5 0.5-0.5 1.3zm11.1 0.3q-1.9 0-3.2-0.8-1.4-1-2.1-2.4-0.7-1.6-0.7-3.4 0-1.9 0.8-3.4 0.8-1.6 2.3-2.4 1.5-0.9 3.6-0.9 2 0 3.4 0.9 1.5 0.8 2.3 2.4 0.8 1.4 0.8 3.3v6.4h-2.3v-2.6h-0.1q-0.3 0.7-1 1.4-0.6 0.7-1.6 1.1-0.9 0.4-2.2 0.4zm0.6-1.9q1.2 0 2.2-0.6 1-0.7 1.5-1.7 0.5-1.1 0.5-2.5 0-1.3-0.5-2.3-0.5-1.1-1.4-1.7-1-0.6-2.3-0.6-1.3 0-2.3 0.6-0.9 0.6-1.5 1.7-0.5 1-0.5 2.4 0 1.3 0.5 2.4 0.5 1 1.5 1.7 0.9 0.6 2.3 0.6zm14.5 1.9q-0.9 0-1.6-0.4-0.7-0.6-1-1.4l-4.1-11.2h2.5l3.7 10.3q0.1 0.2 0.2 0.4 0.1 0.1 0.3 0.1 0.2 0 0.3-0.1 0.1-0.2 0.2-0.4l3.7-10.3h2.5l-4.2 11.2q-0.3 0.9-1 1.4-0.7 0.4-1.5 0.4zm18.3-0.3h-3.2q-2.1 0-3.8-0.7-1.6-0.8-2.5-2.3-0.9-1.4-0.9-3.3 0-2 0.8-3.4 0.7-1.6 2.1-2.4 1.4-0.9 3.2-0.9 2 0 3.3 0.8 1.3 0.9 2 2.3 0.6 1.5 0.6 3.2 0 0.3 0 0.6 0 0.3-0.1 0.5h-9.5q0.2 1.2 0.8 2 0.7 0.8 1.7 1.3 1 0.3 2.2 0.3h3.3zm-8-7.2h7.3q0-0.5-0.1-1-0.1-0.5-0.4-1-0.2-0.6-0.6-1-0.4-0.4-1.1-0.6-0.6-0.3-1.4-0.3-0.8 0-1.5 0.4-0.7 0.3-1.2 0.9-0.4 0.5-0.7 1.2-0.2 0.7-0.3 1.4zm14.5 7.2h-2.3v-9.1q0-1.7 1-2.6 0.9-1 2.6-1h2.7v2h-2.2q-0.9 0-1.3 0.5-0.5 0.4-0.5 1.3zm13 0h-6.4v-2h6.1q0.6 0 1-0.2 0.5-0.3 0.7-0.7 0.2-0.5 0.2-0.9 0-0.5-0.2-0.9-0.2-0.4-0.6-0.6-0.4-0.3-1-0.3h-2.5q-1.3 0-2.2-0.3-0.9-0.5-1.4-1.3-0.5-0.8-0.5-1.9 0-1 0.5-1.8 0.4-0.9 1.3-1.3 0.9-0.6 2-0.6h5.8v2h-5.6q-0.8 0-1.3 0.5-0.4 0.5-0.4 1.1 0 0.6 0.4 1.1 0.5 0.5 1.4 0.5h2.4q1.4 0 2.3 0.4 1 0.4 1.4 1.3 0.6 0.8 0.6 2 0 1-0.6 1.9-0.5 0.9-1.4 1.5-0.8 0.5-2 0.5zm15.1 0h-2.3v-18.3h2.3zm13.4 0h-3.2q-2.1 0-3.8-0.7-1.6-0.8-2.5-2.3-0.9-1.4-0.9-3.3 0-2 0.8-3.4 0.7-1.6 2.1-2.4 1.4-0.9 3.2-0.9 2 0 3.3 0.8 1.3 0.9 2 2.3 0.6 1.5 0.6 3.2 0 0.3 0 0.6 0 0.3-0.1 0.5h-9.5q0.2 1.2 0.8 2 0.7 0.8 1.7 1.3 1 0.3 2.2 0.3h3.3zm-8-7.2h7.3q0-0.5-0.1-1-0.1-0.5-0.4-1-0.2-0.6-0.6-1-0.4-0.4-1.1-0.6-0.6-0.3-1.4-0.3-0.8 0-1.5 0.4-0.7 0.3-1.2 0.9-0.4 0.5-0.7 1.2-0.2 0.7-0.3 1.4zm19.5 7.2h-6.4v-1.9h6.1q0.6 0 1-0.3 0.5-0.3 0.7-0.7 0.2-0.4 0.2-0.9 0-0.4-0.2-0.8-0.2-0.4-0.6-0.6-0.4-0.3-1-0.3h-2.5q-1.3 0-2.2-0.4-0.9-0.4-1.4-1.2-0.5-0.8-0.5-2 0-0.9 0.5-1.8 0.4-0.8 1.3-1.3 0.9-0.5 2-0.5h5.8v2h-5.6q-0.8 0-1.3 0.5-0.4 0.4-0.4 1.1 0 0.6 0.4 1.1 0.5 0.4 1.4 0.4h2.4q1.4 0 2.3 0.5 1 0.4 1.4 1.2 0.6 0.8 0.6 2 0 1.1-0.6 2-0.5 0.8-1.4 1.4-0.8 0.5-2 0.5zm22.5 0h-3.2q-2.1 0-3.8-0.7-1.6-0.8-2.5-2.3-0.9-1.4-0.9-3.3 0-1.9 0.8-3.4 0.7-1.6 2.1-2.4 1.4-0.9 3.2-0.9 2 0 3.3 0.8 1.3 0.9 2 2.3 0.6 1.5 0.6 3.2 0 0.3 0 0.6 0 0.3-0.1 0.5h-9.5q0.2 1.2 0.8 2 0.7 0.8 1.7 1.3 1 0.4 2.2 0.4h3.3zm-8-7.3h7.3q0-0.4-0.1-1-0.1-0.5-0.4-1-0.2-0.5-0.6-0.9-0.4-0.5-1.1-0.7-0.6-0.3-1.4-0.3-0.8 0-1.5 0.4-0.7 0.3-1.2 0.9-0.4 0.5-0.7 1.3-0.2 0.6-0.3 1.3zm5-7.2h-2.2l2.3-3h2.2zm14.8 1.3q1.4 0 2.6 0.5 1.2 0.5 2.1 1.4 0.8 0.9 1.3 2.1 0.5 1.3 0.5 2.9 0 1.9-0.8 3.4-0.8 1.5-2.2 2.3-1.4 0.8-3.2 0.8-1 0-1.9-0.3-0.8-0.4-1.5-0.9-0.7-0.6-1.1-1.4h-0.1v7.8h-2.3v-11.8q0-2.2 0.9-3.7 0.8-1.5 2.3-2.3 1.5-0.8 3.4-0.8zm-0.1 2q-1.1 0-2.1 0.6-0.9 0.5-1.5 1.6-0.5 1-0.5 2.5 0 1.4 0.5 2.5 0.6 1 1.5 1.6 1 0.6 2.2 0.6 1.2 0 2.1-0.6 1-0.6 1.5-1.6 0.6-1.1 0.6-2.5 0-1.4-0.6-2.5-0.6-1-1.5-1.6-1-0.6-2.2-0.6zm15.6 11.4q-1.9 0-3.5-0.9-1.5-0.9-2.4-2.4-0.8-1.5-0.8-3.4 0-1.9 0.8-3.4 0.9-1.5 2.4-2.4 1.6-0.9 3.5-0.9 1.9 0 3.4 0.9 1.6 0.9 2.4 2.4 0.9 1.5 0.9 3.4 0 1.9-0.9 3.4-0.8 1.5-2.4 2.4-1.5 0.9-3.4 0.9zm0-2q1.3 0 2.3-0.6 1-0.6 1.5-1.7 0.6-1.1 0.6-2.4 0-1.3-0.6-2.4-0.5-1-1.5-1.7-1-0.6-2.3-0.6-1.3 0-2.3 0.6-1 0.7-1.5 1.7-0.6 1.1-0.6 2.4 0 1.3 0.6 2.4 0.5 1.1 1.5 1.7 1 0.6 2.3 0.6zm16.2 6.8h-2.3v-5.2h2.3zm-1.2-4.8q-1.9 0-3.5-0.9-1.5-0.9-2.4-2.4-0.8-1.5-0.8-3.4 0-1.9 0.8-3.4 0.9-1.5 2.4-2.4 1.6-0.9 3.5-0.9 1.9 0 3.4 0.9 1.6 0.9 2.4 2.4 0.9 1.5 0.9 3.4 0 1.9-0.9 3.4-0.8 1.5-2.4 2.4-1.5 0.9-3.4 0.9zm0-2q1.3 0 2.3-0.6 1-0.6 1.5-1.7 0.6-1.1 0.6-2.4 0-1.3-0.6-2.4-0.5-1-1.5-1.7-1-0.6-2.3-0.6-1.3 0-2.3 0.6-1 0.7-1.5 1.7-0.6 1.1-0.6 2.4 0 1.3 0.6 2.4 0.5 1.1 1.5 1.7 1 0.6 2.3 0.6zm16 2q-1.8 0-3.1-0.7-1.4-0.7-2.2-2-0.7-1.3-0.7-3v-7.4h2.3v7.4q0 1.1 0.5 2 0.5 0.8 1.3 1.3 0.9 0.4 1.8 0.4 1 0 1.8-0.4 0.9-0.5 1.4-1.3 0.5-0.9 0.5-2v-7.4h2.3v7.4q0 1.7-0.8 3-0.7 1.3-2.1 2-1.3 0.7-3 0.7zm18.7-0.3h-3.2q-2.1 0-3.8-0.8-1.6-0.8-2.5-2.2-0.9-1.5-0.9-3.4 0-1.9 0.8-3.4 0.7-1.5 2.1-2.4 1.4-0.9 3.2-0.9 2 0 3.3 0.9 1.3 0.8 2 2.3 0.6 1.4 0.6 3.2 0 0.3 0 0.6 0 0.3-0.1 0.5h-9.5q0.2 1.2 0.8 2 0.7 0.8 1.7 1.2 1 0.4 2.2 0.4h3.3zm-8-7.2h7.3q0-0.5-0.1-1-0.1-0.6-0.4-1.1-0.2-0.5-0.6-0.9-0.4-0.4-1.1-0.7-0.6-0.2-1.4-0.2-0.8 0-1.5 0.3-0.7 0.4-1.2 0.9-0.4 0.6-0.7 1.3-0.2 0.7-0.3 1.4zm19.5 7.2h-6.4v-2h6.1q0.6 0 1-0.2 0.5-0.3 0.7-0.7 0.2-0.5 0.2-0.9 0-0.5-0.2-0.8-0.2-0.4-0.6-0.7-0.4-0.2-1-0.2h-2.5q-1.3 0-2.2-0.4-0.9-0.4-1.4-1.2-0.5-0.9-0.5-2 0-1 0.5-1.8 0.4-0.8 1.3-1.3 0.9-0.5 2-0.5h5.8v1.9h-5.6q-0.8 0-1.3 0.5-0.4 0.5-0.4 1.1 0 0.6 0.4 1.1 0.5 0.5 1.4 0.5h2.4q1.4 0 2.3 0.4 1 0.5 1.4 1.3 0.6 0.8 0.6 2 0 1-0.6 1.9-0.5 0.9-1.4 1.5-0.8 0.5-2 0.5z"/>
		<path id="TP Museum" class="s2" aria-label="TP Museum"  d="m175.1 84h-3.7q-3.7 0-6.5-1.6-2.8-1.7-4.4-4.5-1.6-2.8-1.6-6.2v-20.2h-11v-8.1h31.7v8.1h-11v21.1q0 1.3 1 2.3 0.9 1 2.3 1h3.2zm19.2 0h-9.7v-40.6h17.4q4.1 0 7.4 1.8 3.5 1.9 5.5 5.2 2 3.2 2 7.5 0 4.3-2 7.7-2 3.3-5.4 5.1-3.4 1.9-7.5 1.9h-7.7zm0-32.5v12.9h6.6q1.7 0 3.1-0.7 1.4-0.8 2.3-2.2 0.8-1.5 0.8-3.5 0-2.1-0.9-3.5-0.8-1.4-2.2-2.2-1.4-0.8-3.1-0.8zm70.8 33.2q-3.5 0-6.5-1.6-2.9-1.5-4.6-4.3-1.7-2.8-1.7-6.6v-17.7q0-1-0.5-1.7-0.4-0.8-1.2-1.2-0.7-0.5-1.6-0.5-1 0-1.7 0.5-0.8 0.4-1.2 1.2-0.5 0.7-0.5 1.7v29.5h-9.5v-28.8q0-3.7 1.7-6.5 1.7-2.8 4.5-4.4 3-1.6 6.7-1.6 3.7 0 6.5 1.6 3 1.6 4.6 4.4 1.7 2.8 1.7 6.5v17.7q0 0.9 0.4 1.7 0.5 0.7 1.3 1.2 0.7 0.4 1.6 0.4 0.9 0 1.7-0.4 0.8-0.5 1.2-1.2 0.5-0.8 0.5-1.7v-17.7q0-3.7 1.6-6.5 1.8-2.8 4.7-4.4 2.9-1.6 6.5-1.6 3.7 0 6.6 1.6 2.9 1.6 4.6 4.4 1.6 2.8 1.6 6.5v28.8h-9.4v-29.6q0-0.9-0.5-1.6-0.4-0.8-1.2-1.2-0.7-0.5-1.7-0.5-0.9 0-1.7 0.5-0.7 0.4-1.2 1.2-0.4 0.7-0.4 1.6v17.8q0 3.8-1.8 6.6-1.7 2.8-4.6 4.3-2.9 1.6-6.5 1.6zm51.1 0q-4.6 0-7.9-1.8-3.3-1.8-5.2-4.8-1.7-3-1.7-6.8v-17.1h8.9v16.9q0 1.5 0.8 2.9 0.8 1.3 2 2.1 1.4 0.7 3 0.7 1.7 0 3-0.7 1.3-0.8 2.1-2.1 0.7-1.4 0.7-2.9v-16.9h9v17.1q0 3.8-1.7 6.8-1.8 3-5.1 4.8-3.3 1.8-7.9 1.8zm36.8-0.7h-15.6v-7.2h14.3q0.7 0 1.1-0.2 0.5-0.3 0.8-0.7 0.2-0.5 0.2-1.1 0-0.5-0.2-1-0.3-0.4-0.8-0.7-0.4-0.3-1.1-0.3h-5.2q-2.9 0-5.2-0.9-2.3-1-3.8-3-1.3-2.1-1.3-5.4 0-2.5 1.2-4.6 1.3-2.1 3.5-3.3 2.2-1.4 4.8-1.4h14.3v7.2h-13q-0.7 0-1.3 0.5-0.6 0.5-0.6 1.3 0 0.8 0.6 1.4 0.5 0.5 1.3 0.5h5.1q3.3 0 5.6 1 2.4 1 3.7 3 1.3 2.1 1.3 5.4 0 2.6-1.3 4.8-1.3 2.1-3.5 3.4-2.2 1.3-4.9 1.3zm39.7 0h-8.8q-5 0-8.9-1.9-3.8-1.9-5.9-5.2-2.1-3.4-2.1-7.8 0-4.9 2-8.3 2-3.5 5.4-5.4 3.4-1.9 7.6-1.9 4.7 0 7.8 2.1 3.2 1.9 4.8 5.3 1.6 3.4 1.6 7.7 0 0.8-0.1 1.8 0 1-0.2 1.6h-19.5q0.4 1.5 1.3 2.6 1 1 2.5 1.5 1.6 0.5 3.4 0.5h9.1zm-16.5-17.6h11.3q-0.1-1-0.3-1.9-0.3-0.8-0.8-1.5-0.4-0.7-1.1-1.1-0.6-0.6-1.5-0.8-0.8-0.3-1.9-0.3-1.3 0-2.3 0.5-1.1 0.4-1.8 1.2-0.6 0.8-1.1 1.8-0.3 1-0.5 2.1zm40 18.3q-4.6 0-7.9-1.8-3.3-1.8-5.2-4.8-1.7-3-1.7-6.8v-17.1h8.9v16.9q0 1.5 0.8 2.9 0.8 1.3 2 2.1 1.4 0.7 3 0.7 1.7 0 3-0.7 1.3-0.8 2.1-2.1 0.7-1.4 0.7-2.9v-16.9h9v17.1q0 3.8-1.7 6.8-1.8 3-5.1 4.8-3.3 1.8-7.9 1.8zm30.1-0.7h-8.9v-17.6q0-3.7 1.7-6.6 1.7-2.9 4.8-4.5 3.3-1.8 7.7-1.8 2.2 0 4 0.5 1.9 0.5 3.4 1.4 1.6 0.8 2.7 2h0.1q1.2-1.2 2.7-2 1.5-0.9 3.4-1.4 1.9-0.5 4.1-0.5 4.4 0 7.6 1.8 3.2 1.6 4.9 4.5 1.8 2.9 1.8 6.6v17.6h-9.1v-17.3q0-1.5-0.7-2.6-0.7-1.3-1.9-2-1.2-0.7-2.8-0.7-1.6 0-2.9 0.7-1.2 0.7-1.9 2-0.7 1.1-0.7 2.6v17.3h-9v-17.3q0-1.5-0.7-2.6-0.7-1.3-2-2-1.2-0.7-2.8-0.7-1.5 0-2.8 0.7-1.2 0.7-1.9 2-0.8 1.1-0.8 2.6z"/>
		<path id="Musée - Librarie - Café" class="s2" aria-label="Musée - Librarie - Café"  d="m155 101.1c-0.1-0.4-0.5-0.5-0.9-0.5 0 0 0 0 0 0 0 0 0 0 0 0 0 0 0 0 0 0-0.7 0-1.3 0.5-1.4 1.2l-2.3 12.9c-0.1 0.7 0.3 1.3 1 1.3 0.7 0 1.3-0.6 1.4-1.3l1.7-9.2 2.3 4.4c0.2 0.3 0.6 0.5 0.9 0.5 0 0 0.1 0 0.1 0 0 0 0 0 0 0 0.4 0 0.8-0.2 1.1-0.5l3.9-4.4-1.6 9.2c-0.1 0.7 0.3 1.3 1 1.3 0.7 0 1.3-0.6 1.4-1.3l2.3-12.9c0.1-0.7-0.3-1.2-1-1.2 0 0 0 0 0 0 0 0 0 0 0 0 0 0 0 0 0 0-0.4 0-0.8 0.1-1.1 0.5l-5.5 6.1zm23.4 3.9c-0.6 0-1.2 0.5-1.3 1.1l-1 5.3c-0.2 1.2-1.4 2.2-2.6 2.2-1.3 0-2.1-1-1.9-2.2l0.9-5.3c0.1-0.6-0.3-1.1-0.9-1.1-0.7 0-1.3 0.5-1.4 1.1l-0.9 5.3c-0.5 2.5 1.2 4.6 3.8 4.6 2.5 0 4.9-2.1 5.4-4.6l0.9-5.3c0.1-0.6-0.3-1.1-1-1.1zm2.2 9.4c0.7 0.7 1.9 1.5 3.6 1.6 1 0 2.1-0.4 3-0.9 0.8-0.6 1.6-1.5 1.8-2.5 0.1-0.6 0-1.1-0.2-1.5-0.2-0.6-0.7-1-1.3-1.3-0.5-0.3-1.2-0.5-1.9-0.7h-0.1c-0.7-0.1-1.2-0.3-1.4-0.5-0.2-0.1-0.2-0.2-0.3-0.2 0-0.1 0-0.1 0-0.2 0.1-0.1 0.2-0.3 0.5-0.5 0.3-0.2 0.8-0.4 1.4-0.4 0.7 0 1.2 0.4 1.8 0.8 0.5 0.4 1.3 0.2 1.7-0.3 0.4-0.5 0.4-1.3-0.1-1.6-0.6-0.5-1.5-1.2-3-1.2-1 0-2 0.3-2.9 0.8-0.8 0.6-1.5 1.4-1.7 2.4-0.1 0.5 0 1 0.2 1.4 0.2 0.6 0.7 1 1.2 1.3 0.5 0.2 1.2 0.4 1.8 0.5 0.8 0.2 1.4 0.4 1.7 0.6 0.2 0.2 0.2 0.3 0.3 0.3 0 0.1 0 0.2 0 0.3 0 0.1-0.2 0.3-0.5 0.6-0.4 0.2-1 0.4-1.6 0.4-0.9 0-1.8-0.5-2.2-0.9-0.5-0.5-1.2-0.4-1.7 0.1-0.5 0.5-0.6 1.2-0.1 1.6zm15.6 1.6c2 0 3.2-0.5 4.6-1.7 0.4-0.4 0.4-1.1 0-1.5 0 0-0.7-0.7-1.5 0.1-0.8 0.6-1.8 0.9-2.7 0.8-0.7-0.1-1.5-0.5-1.9-1-0.3-0.4-0.5-0.9-0.5-1.4h7c0.6 0 1.2-0.4 1.3-0.9 0.1-0.1 0.1-0.2 0.1-0.2 0 0 0 0 0 0 0 0 0 0 0 0 0 0 0-0.1 0-0.1 0.4-3-1.5-5.1-4.4-5.1-3 0-5.8 2.5-6.3 5.5-0.6 3 1.3 5.5 4.3 5.5zm1.7-8.9c1.8 0.1 2.7 1.4 2.8 2.3h-6.3c0.4-0.9 1.6-2.3 3.5-2.3zm-0.2-4.1c0.7 0 1.1-0.1 1.6-0.6l1.5-1.4c0.2-0.2 0.4-0.4 0.4-0.7 0-0.4-0.9-0.8-1.6-0.8-0.5 0-0.8 0.2-1.1 0.6l-1.2 1.9c-0.1 0.2-0.2 0.4-0.2 0.5 0 0.3 0.3 0.5 0.6 0.5zm11.5 13c1.9 0 3.2-0.5 4.5-1.7 0.4-0.4 0.5-1.1 0.1-1.5-0.1 0-0.8-0.7-1.6 0.1-0.7 0.6-1.8 0.9-2.6 0.8-0.8-0.1-1.6-0.5-2-1-0.3-0.4-0.4-0.9-0.4-1.4h7c0.6 0 1.1-0.4 1.3-0.9 0-0.1 0-0.2 0-0.2 0 0 0 0 0 0 0 0 0 0 0 0 0 0 0-0.1 0-0.1 0.4-3-1.5-5.1-4.3-5.1-3.1 0-5.8 2.5-6.4 5.5-0.5 3 1.3 5.5 4.4 5.5zm1.6-8.9c1.9 0.1 2.8 1.4 2.8 2.3h-6.2c0.3-0.9 1.5-2.3 3.4-2.3zm18.5 2.1c0.5 0 0.8-0.4 0.8-0.8 0-0.4-0.3-0.8-0.8-0.8h-4.1c-0.4 0-0.7 0.4-0.7 0.8 0 0.4 0.3 0.8 0.7 0.8zm12.1 6.7c0 0 0 0 0 0 0.1 0 0.1 0 0.1 0h7.1c0.7 0 1.3-0.5 1.4-1.2 0.2-0.7-0.3-1.2-1-1.2h-5.9l2-11.8c0.2-0.6-0.3-1.2-1-1.2-0.6 0-1.3 0.6-1.4 1.2l-2.3 13c-0.1 0.7 0.4 1.2 1 1.2zm12.8-1.1c-0.1 0.6 0.3 1.2 1 1.2 0.7 0 1.3-0.6 1.4-1.2l1.6-8.6c0.1-0.7-0.3-1.2-1-1.2-0.7 0-1.3 0.5-1.4 1.2zm4.6-12.5l0.1-0.5c0.1-0.7-0.3-1.2-1-1.2-0.6 0-1.3 0.5-1.4 1.2l-0.1 0.5c-0.1 0.6 0.3 1.2 1 1.2 0.7 0 1.3-0.6 1.4-1.2zm2.4 13.7c0.6 0 1.1-0.4 1.3-0.9 0.8 0.6 1.7 0.9 2.9 0.9 3 0 5.8-2.5 6.3-5.5 0.5-3-1.4-5.5-4.4-5.5-1.1 0-2.2 0.3-3.1 0.9l0.6-4.1c0.2-0.7-0.3-1.2-1-1.2-0.6 0-1.3 0.5-1.4 1.2l-2.2 13c-0.1 0.7 0.3 1.2 1 1.2zm3.4-7.7c0.7-0.6 1.5-1 2.3-1 0.8 0 1.5 0.4 1.9 1 0.5 0.5 0.7 1.3 0.5 2.2-0.2 0.9-0.6 1.7-1.3 2.2-0.6 0.6-1.4 0.9-2.2 0.9-0.8 0-1.5-0.3-2-0.9-0.4-0.5-0.6-1.3-0.4-2.2 0.1-0.9 0.6-1.7 1.2-2.2zm12.5-3.3c-0.7 0-1.3 0.5-1.4 1.1l-1.5 8.7c-0.1 0.6 0.3 1.2 0.9 1.2 0.7 0 1.3-0.6 1.4-1.2l0.8-4.2c0.1-0.3 0.6-1.1 1.2-1.8 0.4-0.4 0.8-0.8 1.2-1.1 0.5-0.2 0.9-0.4 1.4-0.4 0.7 0 1.3-0.5 1.4-1.2 0.1-0.6-0.3-1.1-1-1.1-1.1 0-2.1 0.3-2.9 0.9-0.2 0.1-0.4 0.2-0.6 0.4v-0.2c0.2-0.6-0.3-1.1-0.9-1.1zm9.3 10.9c0 0 0 0 0 0 1.1 0 2.2-0.3 3.1-0.9 0 0.5 0.4 0.9 1 0.9 0.6 0 1.2-0.5 1.4-1.1l1.5-8.6c0.1-0.7-0.3-1.2-1-1.2-0.6 0-1.1 0.4-1.3 0.9-0.7-0.6-1.7-0.9-2.7-0.9-1.5 0-2.9 0.6-4.1 1.6-1.1 1-1.9 2.4-2.1 3.9-0.3 1.4 0 2.8 0.8 3.8 0.7 1 2 1.6 3.4 1.6zm-0.6-7.7c0.6-0.5 1.4-0.9 2.1-0.9 0.8 0 1.5 0.4 1.9 0.9 0.4 0.6 0.7 1.4 0.5 2.3-0.2 0.8-0.6 1.6-1.3 2.2-0.6 0.6-1.4 0.9-2.2 0.9-0.7 0-1.4-0.3-1.8-0.9-0.5-0.6-0.7-1.4-0.5-2.2 0.1-0.9 0.6-1.7 1.3-2.3zm13.3-3.2c-0.7 0-1.3 0.5-1.4 1.1l-1.5 8.7c-0.1 0.6 0.3 1.2 0.9 1.2 0.7 0 1.3-0.6 1.4-1.2l0.8-4.2c0.1-0.3 0.6-1.1 1.2-1.8 0.4-0.4 0.8-0.8 1.2-1.1 0.5-0.2 0.9-0.4 1.4-0.4 0.7 0 1.3-0.5 1.4-1.2 0.1-0.6-0.3-1.1-1-1.1-1.1 0-2.1 0.3-2.9 0.9-0.2 0.1-0.4 0.2-0.6 0.4v-0.2c0.2-0.6-0.3-1.1-0.9-1.1zm7.1 9.8c-0.1 0.6 0.3 1.2 1 1.2 0.7 0 1.3-0.6 1.4-1.2l1.6-8.6c0.2-0.7-0.3-1.2-1-1.2-0.7 0-1.3 0.5-1.4 1.2zm4.6-12.5l0.1-0.5c0.1-0.7-0.3-1.2-1-1.2-0.6 0-1.3 0.5-1.4 1.2l-0.1 0.5c-0.1 0.6 0.4 1.2 1 1.2 0.7 0 1.3-0.6 1.4-1.2zm5.4 13.7c2 0 3.2-0.5 4.5-1.7 0.4-0.4 0.5-1.1 0.1-1.5 0 0-0.7-0.7-1.6 0.1-0.7 0.6-1.8 0.9-2.6 0.8-0.7-0.1-1.6-0.5-1.9-1-0.3-0.4-0.5-0.9-0.5-1.4h7c0.6 0 1.1-0.4 1.3-0.9 0-0.1 0-0.2 0-0.2 0 0 0 0 0 0 0 0 0 0 0 0 0.1 0 0.1-0.1 0.1-0.1 0.3-3-1.5-5.1-4.4-5.1-3 0-5.8 2.5-6.4 5.5-0.5 3 1.4 5.4 4.4 5.5zm1.6-8.9c1.9 0.1 2.8 1.4 2.8 2.3h-6.2c0.4-0.9 1.5-2.3 3.4-2.3zm18.6 2.1c0.4 0 0.7-0.4 0.7-0.8 0-0.4-0.3-0.8-0.7-0.8h-4.1c-0.5 0-0.8 0.4-0.8 0.8 0 0.4 0.3 0.8 0.8 0.8zm17.5 6.8c0 0 0 0 0 0 1.8 0 3.7-0.6 5.2-1.7 0.6-0.4 0.8-1.2 0.5-1.7-0.3-0.5-1.1-0.6-1.7-0.2-1 0.7-2.3 1.1-3.6 1.1-1.5 0-2.7-0.6-3.6-1.5-0.8-1-1.1-2.3-0.9-3.7 0.3-1.5 1.1-2.8 2.3-3.8 1.1-0.9 2.6-1.5 4.1-1.5 1.3 0 2.4 0.4 3.2 1.2 0.5 0.4 1.2 0.3 1.7-0.2 0.5-0.6 0.6-1.3 0.1-1.8-1.1-1-2.7-1.6-4.6-1.6-4.3 0-8.4 3.4-9.2 7.7-0.8 4.3 2.2 7.7 6.5 7.7zm12.5-0.1c0 0 0 0 0 0 1.1 0 2.2-0.3 3.1-0.9 0 0.5 0.4 0.9 1 0.9 0.6 0 1.2-0.5 1.4-1.1l1.5-8.6c0.1-0.7-0.3-1.2-1-1.2-0.5 0-1.1 0.4-1.3 0.9-0.7-0.6-1.6-0.9-2.7-0.9-1.5 0-2.9 0.6-4 1.6-1.1 1-2 2.4-2.2 3.9-0.3 1.4 0.1 2.8 0.8 3.8 0.8 1 2 1.6 3.4 1.6zm-0.6-7.7c0.6-0.5 1.4-0.9 2.2-0.9 0.8 0 1.4 0.4 1.8 0.9 0.4 0.6 0.7 1.4 0.5 2.3-0.2 0.8-0.6 1.6-1.3 2.2-0.6 0.6-1.4 0.9-2.1 0.9-0.8 0-1.5-0.3-1.9-0.9-0.5-0.6-0.6-1.4-0.5-2.2 0.2-0.9 0.6-1.7 1.3-2.3zm15.7-5.1c0 0 0 0 0.1 0 0.1-0.1 0.3-0.1 0.6-0.1 0.6 0 1.3-0.5 1.4-1.2 0.1-0.7-0.3-1.2-1-1.2-0.4 0-0.9 0-1.3 0.2-0.7 0.1-1.5 0.7-1.9 1.3-0.4 0.7-0.6 1.3-0.8 2.2v0.3h-0.6c-0.7 0-1.3 0.5-1.4 1.2-0.1 0.7 0.3 1.2 1 1.2h0.6l-1.4 7.8c-0.1 0.6 0.3 1.2 1 1.2 0.7 0 1.3-0.6 1.4-1.2l1.4-7.8h0.6c0.7 0 1.3-0.5 1.5-1.2 0.1-0.7-0.4-1.2-1-1.2h-0.7l0.1-0.3c0.1-0.9 0.3-1.1 0.4-1.2zm7.8 12.9c1.9 0 3.2-0.5 4.5-1.7 0.4-0.4 0.4-1.1 0.1-1.5-0.1 0-0.8-0.7-1.6 0.1-0.7 0.6-1.8 0.9-2.6 0.8-0.8-0.1-1.6-0.5-2-1-0.3-0.4-0.4-0.9-0.4-1.4h7c0.6 0 1.1-0.4 1.3-0.9 0-0.1 0-0.2 0-0.2 0 0 0 0 0 0 0 0 0 0 0 0 0 0 0-0.1 0-0.1 0.4-3-1.5-5.1-4.3-5.1-3.1 0-5.8 2.5-6.4 5.5-0.5 3 1.3 5.4 4.4 5.5zm1.6-8.9c1.9 0.1 2.8 1.4 2.8 2.3h-6.2c0.3-0.9 1.5-2.3 3.4-2.3zm-0.1-4.1c0.6 0 1-0.1 1.5-0.6l1.5-1.4c0.2-0.2 0.4-0.4 0.4-0.7 0-0.4-0.9-0.8-1.6-0.8-0.5 0-0.8 0.2-1.1 0.6l-1.2 1.9c-0.1 0.2-0.2 0.4-0.2 0.5 0 0.3 0.3 0.5 0.7 0.5z"/>
	</g>
</svg>