<svg version="1.2" xmlns="http://www.w3.org/2000/svg" viewBox="0 5.800000000000008 452.5938286193626 124.96722936216938" width="1000" height="278">
	<style>
		.s0 { fill: #704514 } 
		.s1 { fill: #000000 } 
		.s2 { fill: #ffffff } 
	</style>
	<g id="Layer 1">
		<path id="Forme 1" fill-rule="evenodd" class="s0" d="m59.22 130.77c-32.75 0-59.22-26.47-59.22-59.22 0-32.75 26.47-59.22 59.22-59.22 32.74 0 59.21 26.47 59.21 59.22 0 32.75-26.47 59.22-59.21 59.22z"/>
		<path id="Musée - Librarie - Café" class="s0" aria-label="Musée - Librarie - Café"  d="m157.4 103h1.5v23h-1.1v-21.8l-10.8 22.2-10.8-22.2v21.8h-0.9v-23h1.5l10.3 21.2zm16.5 17.2v-8h1v13.8h-1v-2.8q-1.6 3.1-5.4 3.1-2.5 0-4.3-1.7-1.7-1.8-1.7-4.4v-8h1v8q0 2.2 1.4 3.7 1.5 1.6 3.6 1.6 2.2 0 3.7-1.6 1.7-1.5 1.7-3.7zm6.9-7.5q-0.8 0-1.4 0.5-0.6 0.5-0.6 1.3 0 0.8 0.6 1.4 0.7 0.7 1.7 1.2 1 0.5 2 1.1 0.9 0.7 1.6 1.6 0.7 1 0.7 2.2 0 1.8-1.4 3.1-1.3 1.2-3.2 1.2-1.3 0-2.3-0.5-1.1-0.5-1.6-1.4v-1.5q1.2 2.6 3.8 2.6 1.6 0 2.6-1 1.1-1 1.1-2.2 0-1.2-0.7-2-0.6-0.9-1.6-1.4-1-0.6-2-1.2-0.9-0.6-1.6-1.4-0.7-0.8-0.7-1.9 0-1.1 0.8-1.8 0.9-0.8 2.3-0.8 1.4 0 2.4 1.1v1.3q-1-1.5-2.5-1.5zm15.2 13.7h-0.3q-2.9 0-5.1-2.2-2.1-2.2-2.1-5.1 0-2.9 2.1-5 2.2-2.2 5.3-2.2 3.2 0 5.4 2.5l-9.6 9.5q2 1.6 3.9 1.6 1.8 0 3.2-0.8 1.5-0.9 2.5-2.3v1.6q-2.2 2.4-5.3 2.4zm-0.4-13.6q-2.4 0-4.3 1.9-1.8 1.8-1.8 4.3 0 2.4 1.6 4.3l8.9-8.9q-1.9-1.6-4.4-1.6zm-3.5-3l4.3-3.5h1.2l-4.3 3.5zm19.7 16.6h-0.3q-2.9 0-5.1-2.2-2.1-2.2-2.1-5.1 0-2.9 2.1-5 2.1-2.2 5.3-2.2 3.2 0 5.4 2.5l-9.6 9.5q2 1.6 3.8 1.6 1.9 0 3.3-0.8 1.5-0.9 2.4-2.3v1.6q-2.1 2.4-5.2 2.4zm-0.4-13.6q-2.4 0-4.3 1.9-1.9 1.8-1.9 4.3 0 2.4 1.7 4.3l8.9-8.9q-1.9-1.6-4.4-1.6zm27.4 0.4v0.9h-9.5v-0.9zm14.5-10.2h1v22.1h7.1v0.9h-8.1zm10.9 9.2h1v13.8h-1zm0.5-3.4q-0.9 0-0.9-0.8 0-0.9 0.9-0.9 0.9 0 0.9 0.9 0 0.8-0.9 0.8zm6.1 17.1h-1v-23h1v12.6q0.9-1.7 2.6-2.7 1.8-1 3.7-1 3 0 5.1 2.1 2.2 2.2 2.2 5.1 0 3-2.2 5.1-2.1 2.2-5.1 2.2-1.9 0-3.6-1-1.8-1-2.7-2.7zm0-6.9q0 2.6 1.8 4.5 1.9 1.9 4.5 1.9 2.6 0 4.4-1.9 1.9-1.9 1.9-4.5 0-2.6-1.9-4.5-1.8-1.9-4.4-1.9-2.6 0-4.5 1.9-1.8 1.9-1.8 4.5zm24.1-5q-1.3-1.4-3-1.4-1.6 0-2.8 1.2-1.3 1.3-1.3 2.9v9.2h-1v-13.8h1v2.1q0.6-1.1 1.7-1.8 1.2-0.6 2.6-0.6 1.5 0 2.8 0.9zm15.7-1.8h1v13.8h-1v-3.5q-0.8 1.8-2.6 2.8-1.7 1-3.6 1-3 0-5.2-2.1-2.1-2.2-2.1-5.1 0-3 2.1-5.1 2.2-2.2 5.2-2.2 1.9 0 3.7 1.1 1.8 1 2.5 2.7zm-12.5 7q0 2.5 1.8 4.4 1.9 1.9 4.5 1.9 2.6 0 4.4-1.9 1.9-1.9 1.9-4.4 0-2.6-1.9-4.5-1.8-1.9-4.4-1.9-2.6 0-4.5 1.9-1.8 1.9-1.8 4.5zm24.8-5.1q-1.3-1.3-3-1.3-1.6 0-2.8 1.2-1.3 1.2-1.3 2.8v9.2h-1v-13.8h1v2.1q0.6-1.1 1.7-1.7 1.2-0.7 2.6-0.7 1.5 0 2.8 1zm3.3-1.9h1v13.8h-1zm0.5-3.4q-0.9 0-0.9-0.8 0-0.8 0.9-0.8 0.9 0 0.9 0.8 0 0.8-0.9 0.8zm11 17.5h-0.2q-2.9 0-5.1-2.2-2.2-2.2-2.2-5.1 0-2.9 2.2-5 2.1-2.1 5.3-2.1 3.1 0 5.4 2.5l-9.6 9.5q2 1.6 3.8 1.6 1.8 0 3.3-0.9 1.5-0.8 2.4-2.2v1.5q-2.2 2.4-5.3 2.4zm-0.3-13.6q-2.4 0-4.3 1.9-1.9 1.9-1.9 4.3 0 2.5 1.6 4.3l8.9-8.8q-1.8-1.7-4.3-1.7zm28.4 0.4v1h-9.6v-1zm25.8 13.2h-0.4q-3.1 0-5.9-1.7-2.7-1.6-4.3-4.4-1.5-2.7-1.5-5.8 0-4.9 3.5-8.4 3.5-3.5 8.4-3.5 3.3 0 6.2 1.7v1.2q-2.9-2-6.2-2-4.5 0-7.7 3.2-3.2 3.3-3.2 7.8 0 4.5 3.2 7.7 3.2 3.3 7.7 3.3 3.3 0 6.2-2v1.2q-2.8 1.7-6 1.7zm22.1-14.1h1v13.7h-1v-3.4q-0.9 1.8-2.6 2.8-1.7 1-3.7 1-3 0-5.1-2.1-2.1-2.2-2.1-5.1 0-3 2.1-5.1 2.1-2.2 5.1-2.2 2 0 3.8 1.1 1.8 1 2.5 2.7zm-12.6 6.9q0 2.6 1.9 4.5 1.9 1.9 4.5 1.9 2.6 0 4.4-1.9 1.9-1.9 1.9-4.5 0-2.6-1.9-4.5-1.9-1.9-4.4-1.9-2.6 0-4.5 2-1.9 1.9-1.9 4.4zm23.1-12.5v0.9q-1.8 0-3.1 1.2-1.2 1.3-1.2 3.1v8.1h4.3v0.8h-4.3v5.3h-1v-14.2q0-2.2 1.6-3.7 1.5-1.5 3.7-1.5zm8.9 19.8h-0.3q-2.9 0-5-2.2-2.2-2.2-2.2-5.1 0-2.9 2.2-5 2.1-2.2 5.3-2.2 3.1 0 5.4 2.5l-9.6 9.5q2 1.6 3.8 1.6 1.8 0 3.3-0.8 1.4-0.9 2.4-2.3v1.6q-2.2 2.4-5.3 2.4zm-0.3-13.6q-2.4 0-4.3 1.9-1.9 1.8-1.9 4.3 0 2.4 1.6 4.3l8.9-8.9q-1.9-1.6-4.3-1.6zm-3.6-3l4.3-3.5h1.2l-4.2 3.5z"/>
		<path id="TP Museum" class="s0" aria-label="TP Museum"  d="m150.6 89q-1.2 0-2-0.8-0.8-0.8-0.8-2v-38.7h5.5v38.7q0 1.2-0.8 2-0.8 0.8-1.9 0.8zm14.1-36.4h-28.4q-1.1 0-1.8-0.7-0.7-0.7-0.7-1.8 0-1.1 0.7-1.8 0.7-0.8 1.8-0.8h28.4q1.2 0 1.9 0.8 0.7 0.7 0.7 1.8 0 1.1-0.7 1.8-0.7 0.7-1.9 0.7zm11.4 36.4q-1.2 0-2-0.8-0.8-0.8-0.8-2v-35.9q0-1.2 0.8-2 0.8-0.8 2-0.8h10.6q4 0 7 1.8 3.1 1.7 4.8 4.9 1.8 3.1 1.8 7.1 0 3.9-1.8 6.9-1.7 3-4.8 4.7-3 1.7-7 1.7h-7.9v11.6q0 1.2-0.8 2-0.7 0.8-1.9 0.8zm2.7-36.4v16.9h7.9q2.4 0 4.3-1 1.8-1.1 2.9-3 1.1-1.8 1.1-4.2 0-2.6-1.1-4.5-1.1-1.9-2.9-3.1-1.9-1.1-4.3-1.1zm45.2 36.4q-1.1 0-1.9-0.8-0.8-0.8-0.8-2v-35.9q0-1.2 0.8-2 0.8-0.8 1.9-0.8 1.6 0 2.5 1.5l16.6 33.3h-1.7l16.2-33.3q0.8-1.5 2.4-1.5 1.2 0 2 0.8 0.8 0.8 0.8 2v35.9q0 1.2-0.9 2-0.8 0.8-1.9 0.8-1.1 0-1.9-0.8-0.8-0.8-0.8-2v-28.3l1-0.2-13.9 28.3q-0.9 1.4-2.4 1.4-1.7 0-2.5-1.6l-13.8-27.6 1.1-0.3v28.3q0 1.2-0.8 2-0.8 0.8-2 0.8zm61.9 0.3q-3.6 0-6.5-1.6-2.9-1.6-4.6-4.6-1.6-3-1.6-7.4v-13.1q0-1.2 0.7-1.9 0.8-0.8 2-0.8 1.1 0 1.9 0.8 0.8 0.7 0.8 1.9v13.1q0 2.9 1.1 4.9 1.1 1.9 3 2.9 1.9 0.9 4.3 0.9 2.3 0 4-0.9 1.8-0.9 2.9-2.5 1.1-1.5 1.1-3.4h3.3q0 3.3-1.6 5.9-1.6 2.7-4.4 4.2-2.8 1.6-6.4 1.6zm11.8-0.3q-1.2 0-2-0.7-0.7-0.8-0.7-2v-23.7q0-1.2 0.7-2 0.8-0.7 2-0.7 1.2 0 1.9 0.7 0.8 0.8 0.8 2v23.7q0 1.2-0.8 2-0.7 0.7-1.9 0.7zm22.6 0.2q-3.7 0-6.9-1.1-3.1-1.2-4.9-2.9-0.8-0.9-0.7-1.9 0.2-1.1 1.1-1.8 1-0.9 2.1-0.7 1 0.1 1.8 0.9 0.9 1 2.8 1.9 2 0.8 4.5 0.8 3.1 0 4.7-1 1.6-1 1.7-2.6 0-1.6-1.6-2.7-1.5-1.2-5.7-1.9-5.3-1.1-7.8-3.2-2.4-2.2-2.4-5.2 0-2.7 1.6-4.5 1.6-1.8 4.1-2.7 2.5-0.9 5.2-0.9 3.5 0 6.2 1.2 2.7 1.1 4.3 3 0.8 0.9 0.7 1.8 0 0.9-0.9 1.6-0.8 0.6-2 0.4-1.2-0.3-2-1-1.3-1.3-2.8-1.8-1.6-0.4-3.6-0.4-2.3 0-4 0.8-1.6 0.8-1.6 2.3 0 1 0.5 1.8 0.6 0.7 2 1.3 1.5 0.6 4.4 1.2 4 0.8 6.3 2 2.3 1.2 3.3 2.9 1 1.6 1 3.7 0 2.4-1.3 4.4-1.3 2-3.8 3.1-2.5 1.2-6.3 1.2zm32.1 0q-4.4 0-7.9-1.8-3.4-2-5.3-5.2-2-3.4-2-7.7 0-4.3 1.9-7.6 1.8-3.4 5.1-5.2 3.2-2 7.4-2 4.1 0 7.1 1.9 3 1.8 4.5 5 1.6 3.2 1.6 7.4 0 1-0.7 1.7-0.7 0.7-1.7 0.7h-21.4v-4.3h21.2l-2.2 1.5q0-2.7-1-4.7-1-2.1-2.9-3.4-1.9-1.2-4.5-1.2-3 0-5.2 1.3-2.1 1.4-3.3 3.7-1.1 2.3-1.1 5.2 0 2.9 1.4 5.2 1.3 2.3 3.6 3.6 2.4 1.3 5.4 1.3 1.6 0 3.3-0.5 1.8-0.7 2.8-1.5 0.8-0.6 1.7-0.6 1 0 1.7 0.6 0.9 0.8 0.9 1.7 0.1 1-0.8 1.7-1.8 1.4-4.5 2.3-2.7 0.9-5.1 0.9zm31.5 0.1q-3.6 0-6.5-1.6-2.9-1.6-4.6-4.6-1.6-3-1.6-7.4v-13.1q0-1.2 0.7-1.9 0.8-0.8 2-0.8 1.1 0 1.9 0.8 0.8 0.7 0.8 1.9v13.1q0 2.9 1.1 4.9 1.1 1.9 3 2.9 1.9 0.9 4.3 0.9 2.3 0 4-0.9 1.8-0.9 2.9-2.5 1.1-1.5 1.1-3.4h3.3q0 3.3-1.6 5.9-1.6 2.7-4.4 4.2-2.8 1.6-6.4 1.6zm11.8-0.3q-1.2 0-2-0.7-0.7-0.8-0.7-2v-23.7q0-1.2 0.7-2 0.8-0.7 2-0.7 1.2 0 1.9 0.7 0.8 0.8 0.8 2v23.7q0 1.2-0.8 2-0.7 0.7-1.9 0.7zm50.2 0.1q-1.2 0-2-0.8-0.8-0.8-0.8-2v-15.1q0-3.4-1.6-5-1.6-1.6-4.3-1.6-2.8 0-4.6 1.9-1.7 1.9-1.7 4.9h-4.4q0-3.5 1.5-6.1 1.4-2.6 4.1-4.1 2.7-1.5 6.2-1.5 3 0 5.3 1.3 2.4 1.3 3.6 3.9 1.4 2.6 1.4 6.3v15.1q0 1.2-0.8 2-0.7 0.8-1.9 0.8zm-35.5 0q-1.1 0-1.9-0.8-0.8-0.8-0.8-2v-23.6q0-1.2 0.8-1.9 0.8-0.8 1.9-0.8 1.3 0 2 0.8 0.8 0.7 0.8 1.9v23.6q0 1.2-0.8 2-0.7 0.8-2 0.8zm17.8 0q-1.2 0-2-0.8-0.7-0.8-0.7-2v-15.1q0-3.4-1.7-5-1.6-1.6-4.3-1.6-2.7 0-4.5 1.9-1.8 1.9-1.8 4.9h-3.4q0-3.5 1.4-6.1 1.4-2.6 3.8-4.1 2.5-1.5 5.6-1.5 3 0 5.3 1.3 2.4 1.3 3.7 3.9 1.3 2.6 1.3 6.3v15.1q0 1.2-0.8 2-0.7 0.8-1.9 0.8z"/>
		<path id="Site fictif" class="s1" aria-label="Site fictif"  d="m139.4 22.1q-0.4-0.8-1.1-1.2-0.6-0.4-1.5-0.4-0.8 0-1.4 0.5-0.6 0.6-0.6 1.5 0 1.1 1.2 2 0.5 0.4 1.2 0.7 0.6 0.4 1.2 0.8 0.7 0.4 1.2 0.9 0.5 0.5 0.8 1.2 0.4 0.6 0.4 1.4v0.2q0 1.6-1.1 2.6-1.1 0.9-2.7 0.9-2.1 0-3.3-1.7v-0.9q0.4 0.9 1.3 1.5 0.8 0.6 2.1 0.6 1.3 0 2.2-0.8 1-0.8 1-2.1v-0.1q0-0.9-0.5-1.6-0.4-0.7-1.1-1.2-0.7-0.4-1.4-0.9-0.8-0.5-1.5-0.9-0.6-0.4-1.1-1.1-0.4-0.6-0.4-1.4v-0.1q0-1.2 0.7-1.8 0.8-0.7 1.9-0.7 1.6 0 2.5 1.2zm2.8 3.3h0.6v7.6h-0.6zm0.3-1.8q-0.5 0-0.5-0.5 0-0.5 0.5-0.5 0.5 0 0.5 0.5 0 0.5-0.5 0.5zm5.3 9.1v0.5q-1.2 0-2.1-0.8-0.9-0.8-0.9-2.1v-8h0.6v3.1h2.3v0.5h-2.3v4.4q0 1 0.7 1.7 0.7 0.7 1.7 0.7zm5 0.6h-0.1q-1.6 0-2.8-1.2-1.2-1.3-1.2-2.9 0-1.6 1.2-2.8 1.2-1.2 2.9-1.2 1.8 0 3 1.4l-5.3 5.3q1.1 0.9 2.1 0.9 1 0 1.8-0.5 0.8-0.4 1.4-1.2v0.8q-1.2 1.4-3 1.4zm-0.1-7.6q-1.4 0-2.4 1.1-1.1 1-1.1 2.4 0 1.3 0.9 2.4l5-5q-1.1-0.9-2.4-0.9zm14.2-3.4v0.5q-1 0-1.7 0.7-0.6 0.7-0.6 1.7v4.5h2.3v0.4h-2.3v3h-0.6v-7.9q0-1.3 0.9-2.1 0.8-0.8 2-0.8zm1.3 3.1h0.6v7.7h-0.6zm0.3-1.9q-0.5 0-0.5-0.5 0-0.4 0.5-0.4 0.5 0 0.5 0.4 0 0.5-0.5 0.5zm6.2 9.7h-0.1q-1.7 0-2.8-1.2-1.2-1.2-1.2-2.8 0-1.6 1.2-2.8 1.2-1.2 2.9-1.2 1.7 0 3 1.3v0.9q-0.6-0.8-1.4-1.3-0.8-0.4-1.7-0.4-1.4 0-2.4 1-1.1 1.1-1.1 2.5 0 1.5 1.1 2.5 1 1 2.4 1 0.9 0 1.7-0.4 0.8-0.5 1.4-1.3v0.9q-1.2 1.3-3 1.3zm7.1-0.6v0.5q-1.2 0-2.1-0.8-0.9-0.8-0.9-2.1v-7.9h0.6v3.1h2.3v0.4h-2.3v4.4q0 1.1 0.7 1.7 0.7 0.7 1.7 0.7zm1.4-7.2h0.6v7.6h-0.6zm0.3-1.9q-0.5 0-0.5-0.4 0-0.5 0.5-0.5 0.5 0 0.5 0.5 0 0.4-0.5 0.4zm5.4-1.2v0.5q-1 0-1.7 0.6-0.6 0.7-0.6 1.8v4.4h2.3v0.5h-2.3v2.9h-0.6v-7.8q0-1.3 0.9-2.1 0.8-0.8 2-0.8z"/>
		<path id="Forme 2" fill-rule="evenodd" class="s2" d="m35.93 16.73c2.59 2.07 13.6 5.46 22.07 15.71 8.47 10.25 8.78 11.86 15.28 14.68 13.49 5.85 5.53 19.66 13.72 40.88 8.19 21.22 4.48 26.48 4.87 33.24 0.4 6.76-2.21-26.42-7.69-31-9.21-7.7-3.54-16.33-5.24-25.6-0.82-4.44-21.21-29.14-29.55-33.68-8.21-4.48-15.76-16.07-13.46-14.23z"/>
	</g>
	<g id="Dossier 1">
		<path id="Forme 3" fill-rule="evenodd" class="s2" d="m0 82.73c0 0 5.75-7.57 21.53-10.73 16.65-3.33 12.58 1.22 27.47 10 14.89 8.78 12.07 7.06 23.51 4.01 11.44-3.06 10.49-6.17 24.49 2.99 14 9.16 22-20 22-20 0 0-10.23 13.8-10.66 15.99-0.67 3.39-4.61 4.59-8.55 2.77-3.71-1.7-9.08-8.13-12.58-8.16-3.5-0.04-19.42 2.25-24.62-0.57-5.2-2.82-13.55-2.41-18.01-5.41-4.47-3-14.94-5.56-19.96-6.17-5.36-0.66-20.18 5.3-22.53 9.11"/>
	</g>
	<g id="Dossier 2">
		<path id="Forme 4" fill-rule="evenodd" class="s2" d="m12.94 34.29c3.04 6.12 5.39 3.49 15.92 2.25 10.9-1.29 16.31-2.74 25.14 3.46 8.83 6.2 2.81-0.04 12.89 7.33 10.08 7.37 8.41 2.26 19.11 2.67 10.7 0.41 9.71-3.34 16-3 6.29 0.34 6.12-0.56 10-3 3.88-2.44-7.63-0.66-12 0-4.37 0.66-7.28 2.89-12 3-4.72 0.11-12.09 2.7-20-2-7.91-4.7-7.8-4.62-12-7-4.2-2.38-6.26-6.34-10-7-3.74-0.66-8.98 0.94-13 2-3.81 1.01-7.23 0.11-9.79 1.29-6.39 2.97-13.01-5.55-10.27 0z"/>
	</g>
</svg>